<?xml version="1.0" standalone="no"?>
<!DOCTYPE svg PUBLIC "-//W3C//DTD SVG 20010904//EN"
 "http://www.w3.org/TR/2001/REC-SVG-20010904/DTD/svg10.dtd">
<svg version="1.0" xmlns="http://www.w3.org/2000/svg"
 width="700.000000pt" height="700.000000pt" viewBox="0 0 700.000000 700.000000"
 preserveAspectRatio="xMidYMid meet">
<metadata>
Created by potrace 1.14, written by Peter Selinger 2001-2017
</metadata>
<g transform="translate(0.000000,700.000000) scale(0.100000,-0.100000)"
fill="#000000" stroke="none">
<path d="M3384 6599 c-3 -6 -2 -15 3 -20 5 -5 9 -1 9 11 0 23 -2 24 -12 9z"/>
<path d="M3422 6579 c-24 -16 -41 -25 -37 -19 3 5 -4 10 -17 10 -68 0 -103 7
-100 19 1 7 -2 10 -8 6 -8 -5 -7 -11 1 -21 6 -8 9 -18 5 -21 -4 -4 -11 -1 -16
7 -8 13 -10 13 -10 1 0 -8 -3 -11 -7 -8 -3 4 -12 2 -19 -4 -11 -9 -16 -6 -23
12 -7 17 -10 19 -10 7 -1 -12 -6 -15 -18 -11 -10 4 -14 2 -9 -5 4 -7 -2 -8
-23 -2 -25 7 -29 6 -24 -7 5 -12 0 -12 -23 3 -15 11 -25 14 -21 7 4 -6 3 -14
-3 -18 -5 -3 -10 -1 -10 6 0 8 -5 7 -17 -2 -15 -12 -16 -12 -11 3 6 14 -7 17
-32 8 -3 -1 -9 -2 -13 -1 -5 1 -6 -3 -2 -9 3 -6 10 -8 15 -5 4 3 14 -3 21 -12
12 -15 12 -16 -1 -8 -15 10 -28 13 -67 19 -19 3 -21 0 -12 -15 8 -15 6 -17 -7
-12 -13 5 -15 3 -10 -8 4 -8 -2 -3 -13 10 -12 13 -21 18 -21 12 0 -7 -6 -9
-12 -6 -7 4 -5 0 5 -8 17 -14 17 -15 -7 -13 -13 0 -22 5 -19 10 3 4 -5 5 -17
1 -16 -5 -20 -4 -15 5 6 9 3 9 -12 1 -11 -6 -24 -7 -28 -3 -5 4 -5 2 -1 -5 4
-7 14 -9 24 -6 16 6 16 6 0 -10 -18 -18 -33 -23 -23 -8 3 6 -4 9 -15 8 -13 -1
-19 -6 -15 -15 2 -7 1 -11 -4 -7 -5 3 -11 2 -14 -2 -2 -5 -2 -1 0 7 2 8 1 11
-3 7 -4 -4 -14 -1 -23 6 -14 10 -14 10 -3 -5 9 -11 10 -18 2 -23 -5 -3 -10 -1
-10 4 0 6 -10 9 -22 7 -13 -3 -29 -5 -35 -5 -7 -1 -13 -6 -13 -12 0 -5 6 -7
13 -3 9 5 9 3 -1 -7 -11 -12 -14 -12 -22 1 -9 13 -10 13 -11 0 -1 -8 -1 -19 0
-24 1 -5 -4 -4 -12 2 -8 7 -17 9 -21 5 -4 -4 -5 -1 -3 7 2 8 2 12 0 7 -3 -4
-9 -5 -14 -1 -14 8 -11 -3 7 -20 8 -9 11 -16 5 -16 -5 0 -12 4 -16 10 -3 5
-12 7 -19 4 -8 -3 -17 0 -21 6 -5 7 -18 3 -40 -14 -40 -31 -46 -32 -39 -8 5
14 4 14 -4 2 -6 -8 -8 -18 -5 -23 3 -6 -8 -8 -26 -5 -18 3 -34 1 -37 -4 -3 -5
-10 -5 -16 -2 -7 4 -8 2 -4 -4 6 -11 -5 -16 -25 -14 -4 1 -5 -9 -2 -21 4 -20
3 -20 -7 -4 -11 16 -12 16 -35 0 -12 -10 -22 -20 -20 -23 2 -3 -4 -11 -12 -19
-13 -12 -14 -11 -8 10 5 18 4 21 -4 9 -10 -14 -16 -7 -11 15 1 6 -2 6 -7 2 -8
-8 -9 -12 -12 -39 -1 -9 -4 -8 -11 2 -9 13 -10 13 -11 0 -1 -8 -1 -18 0 -22 0
-5 -2 -7 -7 -6 -4 1 -16 -3 -28 -9 -12 -7 -25 -8 -35 -2 -22 14 -35 11 -14 -4
17 -13 16 -14 -6 -13 -17 1 -24 -4 -23 -16 1 -10 -2 -15 -7 -13 -4 3 -13 -3
-19 -12 -10 -15 -11 -15 -6 -1 2 9 -1 19 -9 22 -10 3 -12 0 -8 -12 6 -14 4
-15 -9 -4 -13 10 -18 10 -24 1 -4 -7 -3 -9 4 -5 6 4 10 -1 9 -13 -1 -19 -2
-19 -21 -3 -18 16 -18 16 -7 -5 13 -26 5 -30 -19 -8 -14 13 -17 13 -17 0 0 -8
5 -11 10 -8 6 3 7 1 3 -6 -6 -9 -11 -9 -24 1 -13 11 -14 11 -7 -1 6 -11 4 -13
-10 -8 -17 7 -17 6 0 -20 14 -21 15 -25 3 -15 -18 14 -51 5 -41 -12 4 -7 1 -6
-9 2 -12 10 -18 10 -28 -2 -6 -9 -9 -19 -7 -23 3 -5 -3 -10 -14 -10 -11 -1
-17 2 -14 8 4 5 1 9 -4 9 -6 0 -11 -4 -11 -10 0 -5 -8 -6 -17 -3 -15 6 -16 5
-3 -9 11 -11 17 -12 22 -4 4 6 8 7 8 1 -1 -5 -8 -19 -17 -30 -13 -16 -15 -17
-10 -2 4 9 2 17 -3 17 -6 0 -10 -5 -10 -11 0 -5 -5 -7 -12 -3 -8 5 -9 0 -5
-15 4 -18 3 -20 -9 -10 -7 6 -12 15 -9 19 3 5 1 11 -4 15 -6 3 -8 -3 -6 -15 3
-14 -1 -20 -13 -20 -15 0 -15 -2 -2 -10 13 -8 12 -10 -3 -10 -11 0 -15 -4 -11
-12 5 -7 3 -8 -7 -2 -29 18 -43 12 -19 -7 14 -12 19 -17 11 -13 -9 4 -20 0
-29 -12 -13 -18 -14 -18 -7 6 7 24 7 24 -8 5 -8 -11 -13 -23 -11 -27 3 -4 -2
-5 -10 -2 -9 3 -13 11 -9 17 3 6 1 7 -6 3 -9 -6 -9 -11 1 -24 11 -13 10 -15
-9 -10 -19 5 -21 3 -13 -11 7 -14 5 -17 -13 -17 -15 1 -22 -5 -21 -16 1 -10
-2 -15 -7 -12 -5 3 -12 -2 -16 -12 -6 -16 -7 -16 -18 0 -11 15 -13 15 -19 1
-3 -9 -2 -13 4 -10 6 3 10 -1 10 -10 0 -11 -5 -15 -14 -12 -8 3 -17 -1 -20
-10 -5 -13 -9 -13 -24 -2 -15 13 -16 12 -3 -3 7 -10 10 -18 6 -18 -4 0 -1 -8
6 -17 13 -16 12 -17 -3 -5 -20 16 -40 8 -31 -13 3 -8 0 -15 -7 -15 -6 0 -8 5
-4 11 4 7 1 10 -7 7 -8 -2 -20 -19 -28 -36 -8 -18 -18 -32 -23 -32 -5 0 -4 9
2 19 13 25 13 31 0 31 -6 0 -9 -3 -9 -7 3 -21 -2 -33 -12 -27 -8 5 -8 1 0 -13
9 -18 7 -20 -13 -18 -14 2 -23 -2 -23 -11 0 -11 3 -11 16 -1 14 11 14 10 2 -6
-8 -10 -20 -16 -27 -13 -9 3 -11 0 -7 -11 5 -13 2 -15 -12 -10 -16 7 -16 5 -4
-10 8 -9 9 -14 3 -10 -7 4 -14 -2 -17 -13 -3 -11 -11 -20 -19 -20 -10 0 -10 3
2 11 12 9 12 10 -3 5 -10 -3 -22 -6 -25 -6 -4 0 0 -5 8 -10 13 -9 12 -12 -4
-25 -10 -8 -24 -11 -30 -8 -6 4 -2 -4 9 -17 l20 -23 -30 19 c-29 18 -30 18
-15 0 14 -18 13 -18 -10 -12 -19 6 -21 5 -10 -3 8 -6 11 -11 5 -12 -5 0 -1 -4
10 -9 15 -6 16 -9 4 -9 -16 -1 -45 -27 -51 -46 -2 -5 -7 -9 -12 -7 -5 2 -6 -5
-2 -14 5 -13 4 -14 -7 -6 -21 17 -39 -5 -26 -31 9 -15 8 -18 -3 -11 -27 17
-36 12 -33 -22 1 -21 -4 -39 -13 -47 -13 -9 -14 -9 -8 1 4 6 4 12 -1 12 -11
-1 -49 -30 -39 -30 5 0 4 -6 -1 -12 -6 -7 -9 -22 -7 -33 l3 -20 -15 20 c-11
14 -15 15 -14 5 4 -28 0 -41 -10 -35 -6 3 -7 -1 -4 -9 3 -9 10 -16 15 -16 6 0
4 -6 -3 -14 -7 -8 -17 -12 -22 -9 -4 3 -3 9 4 13 9 5 9 9 1 14 -6 4 -12 1 -13
-6 0 -7 -2 -22 -3 -33 -1 -11 -9 -36 -19 -55 -10 -21 -15 -26 -12 -12 2 12 0
22 -5 22 -5 0 -9 -5 -9 -11 0 -5 -4 -8 -8 -5 -5 3 -9 -1 -9 -9 0 -8 3 -12 7
-10 3 2 7 -6 7 -18 2 -16 0 -18 -6 -8 -5 8 -14 10 -21 6 -10 -6 -8 -12 6 -23
18 -13 18 -14 -6 -7 -23 7 -24 7 -10 -11 8 -10 11 -16 6 -12 -14 12 -46 -35
-34 -49 7 -9 3 -15 -17 -23 -15 -6 -23 -15 -19 -21 4 -8 9 -7 15 2 4 7 10 11
13 8 3 -3 -6 -16 -21 -30 -15 -13 -21 -16 -14 -6 19 24 5 21 -21 -5 -16 -16
-17 -20 -5 -15 10 4 17 2 17 -5 0 -6 7 -5 18 3 15 13 16 12 4 -3 -8 -9 -19
-15 -27 -12 -7 3 -16 0 -21 -7 -5 -8 -3 -10 6 -4 8 5 11 3 8 -6 -3 -8 -11 -13
-17 -11 -18 4 -12 -16 7 -21 16 -4 16 -5 0 -6 -10 0 -18 -5 -18 -11 0 -5 -5
-9 -12 -7 -7 1 -12 -2 -13 -8 0 -5 -4 -15 -8 -22 -4 -6 -3 -14 3 -18 6 -4 8
-11 5 -16 -4 -5 0 -9 7 -9 8 0 7 -4 -4 -10 -10 -6 -15 -19 -13 -30 3 -13 0
-18 -7 -14 -7 5 -9 2 -5 -9 4 -11 2 -14 -9 -10 -13 5 -12 8 3 25 12 14 13 17
2 13 -8 -3 -20 -15 -27 -26 -8 -12 -9 -18 -3 -15 5 4 12 2 16 -4 3 -5 -2 -10
-12 -10 -15 0 -16 -2 -3 -10 8 -5 11 -10 5 -10 -5 0 -3 -5 5 -10 11 -7 11 -10
2 -10 -7 0 -10 -6 -7 -12 4 -7 -1 -4 -9 6 -18 22 -21 14 -6 -14 7 -13 7 -21
-2 -26 -6 -4 -8 -3 -4 4 3 6 3 13 -2 16 -13 8 -11 -28 2 -36 7 -5 5 -8 -6 -8
-9 0 -18 6 -21 13 -2 6 -5 1 -5 -13 -2 -46 -5 -60 -15 -60 -5 0 -7 -6 -4 -12
2 -7 0 -21 -4 -30 -7 -12 -4 -20 8 -26 14 -8 13 -10 -7 -17 -18 -6 -20 -9 -9
-16 8 -5 9 -9 3 -9 -7 0 -15 -7 -18 -16 -3 -8 -2 -12 4 -9 5 3 8 -4 7 -14 -1
-19 -2 -19 -21 -3 -16 13 -18 14 -8 1 6 -9 9 -19 5 -22 -3 -4 -1 -7 5 -7 7 0
12 -5 12 -11 0 -5 -4 -7 -10 -4 -9 5 -15 -23 -11 -47 1 -10 -12 -10 -25 0 -5
4 -3 0 6 -8 17 -17 20 -44 6 -57 -5 -5 -6 -2 -1 7 6 12 5 13 -5 3 -11 -10 -11
-15 0 -28 10 -12 10 -15 -4 -15 -9 0 -16 -5 -16 -11 0 -6 7 -8 16 -5 14 5 15
4 5 -8 -6 -8 -10 -25 -7 -38 3 -17 -1 -25 -10 -25 -10 0 -11 4 -3 13 7 8 6 14
-2 20 -7 4 -9 3 -6 -3 4 -6 0 -16 -8 -23 -20 -16 -8 -32 17 -24 18 5 19 4 7
-9 -8 -8 -20 -12 -28 -9 -9 3 -12 1 -7 -6 4 -7 2 -12 -6 -12 -10 0 -10 -2 -1
-8 7 -4 14 -22 18 -40 4 -26 2 -32 -12 -32 -15 0 -15 -2 -4 -9 8 -5 16 -17 17
-25 1 -9 -2 -14 -7 -10 -5 3 -6 11 -3 17 4 7 3 8 -1 4 -12 -10 -15 -37 -5 -37
4 0 10 -7 14 -15 4 -13 2 -14 -14 -5 -16 9 -18 8 -14 -5 4 -8 10 -15 15 -15 5
0 9 -5 9 -11 0 -5 -4 -8 -8 -5 -4 2 -14 0 -22 -6 -12 -8 -12 -9 3 -4 9 3 17 1
17 -4 0 -6 -4 -10 -10 -10 -5 0 -10 -4 -10 -10 0 -5 6 -7 13 -4 8 3 14 -2 14
-10 0 -8 -4 -13 -9 -10 -4 3 -8 -4 -8 -15 0 -10 -3 -21 -7 -24 -5 -2 -3 -2 4
-1 6 2 17 -3 23 -11 10 -12 8 -13 -8 -10 -14 2 -19 -1 -17 -13 1 -9 -5 -26
-14 -36 -9 -11 -10 -16 -3 -12 8 5 12 0 12 -14 0 -13 4 -19 12 -14 7 5 8 3 3
-6 -4 -7 -2 -16 6 -21 10 -6 8 -8 -8 -6 -12 0 -19 5 -17 9 3 4 0 8 -5 8 -14 0
-14 -6 -1 -30 7 -13 7 -21 0 -25 -5 -3 -10 -1 -10 6 0 7 -3 10 -6 6 -3 -3 -3
-11 1 -17 5 -8 11 -8 21 1 7 6 11 15 8 20 -3 5 2 6 11 2 11 -3 13 -8 6 -12 -6
-4 -9 -17 -6 -29 2 -12 -1 -22 -7 -22 -5 0 -8 7 -5 14 4 10 1 13 -8 9 -8 -3
-12 -10 -9 -15 4 -6 0 -15 -7 -20 -10 -7 -8 -8 8 -3 12 3 24 1 28 -5 4 -6 3
-10 -2 -9 -22 4 -23 -3 -3 -19 22 -18 21 -50 -1 -37 -5 4 -9 3 -10 -2 0 -4 -2
-16 -4 -25 -2 -10 2 -21 7 -25 7 -4 8 -1 3 6 -5 9 -2 9 14 0 11 -8 17 -16 12
-19 -4 -3 -7 -13 -5 -23 1 -9 -2 -15 -6 -12 -5 3 -7 15 -5 27 3 11 1 18 -2 14
-15 -15 -10 -56 6 -56 14 -1 13 -2 -1 -11 -10 -5 -18 -15 -18 -22 0 -7 4 -6
10 3 8 13 11 13 22 1 11 -11 11 -13 -1 -6 -11 6 -13 4 -8 -9 6 -14 3 -17 -10
-12 -17 6 -17 5 -1 -8 23 -17 23 -30 2 -22 -13 5 -14 3 -7 -6 6 -7 9 -21 8
-31 -2 -9 1 -15 6 -11 5 3 7 9 4 14 -3 5 -1 11 3 14 5 3 9 -7 8 -22 -1 -15 -8
-30 -16 -34 -12 -5 -10 -7 5 -8 19 -1 19 -1 2 -11 -19 -11 -14 -31 7 -23 7 3
13 -2 13 -10 0 -8 -7 -12 -16 -9 -9 3 0 -9 19 -26 19 -18 28 -31 20 -29 -8 2
-19 9 -25 15 -6 8 -15 9 -24 4 -11 -7 -9 -10 8 -16 12 -4 21 -15 22 -28 0 -21
1 -21 8 -3 7 19 8 19 13 -2 4 -14 2 -20 -4 -16 -6 4 -8 1 -6 -7 3 -8 -2 -23
-11 -33 -15 -18 -15 -18 6 -8 18 10 21 9 18 -6 -1 -9 2 -25 6 -34 5 -9 5 -19
1 -22 -5 -3 -9 1 -10 9 -1 8 -3 22 -4 30 -1 8 -5 12 -10 9 -4 -3 -4 -13 2 -23
5 -10 7 -21 3 -24 -3 -4 2 -9 11 -13 19 -7 22 -25 4 -20 -7 1 -10 1 -5 -1 4
-3 4 -9 1 -15 -4 -6 2 -8 16 -3 l22 7 -22 -22 c-21 -21 -21 -22 -3 -40 10 -9
21 -16 25 -14 4 3 10 -1 14 -7 4 -8 3 -9 -4 -5 -8 5 -12 -2 -12 -18 0 -14 5
-26 10 -26 6 0 10 -6 10 -14 0 -8 3 -16 8 -19 4 -2 1 -2 -7 0 -9 2 -11 -2 -7
-13 3 -8 6 -18 6 -20 0 -2 5 -4 11 -4 5 0 7 4 4 10 -3 6 1 7 10 3 9 -3 13 -9
8 -12 -16 -12 -14 -45 4 -59 13 -11 14 -13 2 -9 -9 3 -16 -1 -16 -9 0 -8 6
-13 12 -10 6 2 12 -2 12 -10 0 -7 -5 -11 -11 -8 -6 3 -3 -1 7 -9 11 -9 17 -25
15 -39 -2 -14 2 -22 10 -21 15 4 16 -13 2 -22 -8 -5 -8 -11 -1 -19 6 -7 9 -15
6 -18 -3 -2 2 -5 10 -5 13 0 12 4 -2 21 -13 15 -10 14 10 -3 28 -25 35 -41 16
-41 -5 0 -7 4 -4 10 3 6 -1 7 -9 4 -14 -5 -14 -8 -1 -21 9 -8 12 -19 9 -25 -5
-7 -2 -8 6 -3 10 6 12 4 7 -8 -4 -12 -1 -15 11 -11 14 5 13 3 -2 -10 -11 -9
-14 -16 -7 -16 7 0 9 -5 5 -12 -4 -6 -3 -8 4 -4 6 3 14 2 17 -4 5 -8 12 -7 23
2 15 11 15 11 0 -7 -19 -23 -9 -52 13 -41 8 4 5 0 -6 -10 -20 -16 -20 -16 2
-11 14 3 21 1 20 -7 -1 -6 4 -10 12 -8 12 3 12 0 2 -12 -8 -10 -9 -16 -1 -21
8 -5 7 -11 -2 -23 -10 -12 -10 -14 0 -8 8 5 12 0 12 -13 0 -12 5 -22 10 -22 6
-1 14 -2 19 -3 5 0 13 -5 18 -10 4 -5 4 -7 -2 -4 -5 3 -17 -1 -25 -10 -13 -14
-12 -15 4 -9 13 5 17 3 13 -7 -7 -19 17 -28 34 -13 11 10 11 9 0 -5 -10 -14
-11 -18 -1 -18 9 0 9 -4 -1 -17 -12 -15 -12 -16 3 -10 12 4 15 2 11 -8 -3 -8
-10 -12 -16 -8 -6 3 -7 1 -3 -6 6 -9 11 -9 22 0 17 14 18 5 2 -24 -10 -20 -10
-21 5 -8 10 7 17 10 17 6 0 -4 8 -1 18 6 15 13 16 12 3 -3 -7 -10 -17 -15 -22
-12 -5 3 -9 0 -9 -5 0 -6 10 -11 22 -11 21 0 21 -1 3 -13 -14 -11 -15 -16 -5
-22 9 -5 11 -4 6 3 -4 7 -2 12 3 12 6 0 11 -9 11 -20 0 -11 5 -20 11 -20 5 0
7 5 3 12 -4 7 -3 8 4 4 6 -4 8 -14 5 -23 -5 -12 -3 -14 8 -8 11 7 11 5 -1 -10
-9 -11 -10 -16 -3 -11 12 7 18 -11 14 -37 -1 -5 3 -6 8 -2 6 3 8 13 5 23 -5
14 -4 14 4 3 6 -8 7 -21 4 -30 -5 -14 -4 -14 11 -2 15 12 17 12 11 -4 -6 -14
-4 -16 6 -10 8 5 11 4 6 -3 -4 -6 -14 -8 -23 -5 -11 4 -14 3 -9 -5 4 -7 19
-12 34 -12 19 0 23 -3 13 -9 -11 -7 -11 -10 0 -15 11 -5 11 -7 2 -12 -7 -3
-13 -10 -13 -16 0 -6 7 -5 16 3 13 10 17 10 25 -2 5 -8 9 -16 10 -19 0 -3 2
-14 4 -25 2 -11 9 -21 15 -23 5 -2 7 -9 4 -14 -4 -6 -2 -8 3 -5 6 4 19 -5 29
-18 18 -24 42 -36 29 -15 -10 16 1 11 16 -7 8 -10 9 -14 2 -10 -8 5 -11 1 -10
-12 1 -15 4 -17 14 -9 8 6 16 8 20 4 3 -3 2 -6 -4 -6 -6 0 -14 -7 -17 -16 -6
-15 -4 -15 11 -3 15 13 16 12 11 -9 -5 -19 -4 -21 8 -11 11 9 14 9 14 0 0 -7
4 -10 9 -6 6 3 8 -7 5 -22 -3 -20 -2 -24 5 -14 8 12 12 12 25 2 9 -8 16 -18
16 -24 0 -6 -7 -2 -16 9 -15 18 -15 18 -5 -2 6 -12 7 -25 3 -30 -4 -5 1 -2 11
6 17 12 20 12 29 -3 5 -10 13 -15 19 -12 5 3 6 -1 2 -11 -5 -15 -7 -15 -15 0
-5 9 -13 16 -18 16 -6 0 0 -11 12 -25 12 -14 26 -25 32 -25 6 0 5 4 -3 9 -8 5
-9 11 -3 15 11 6 25 -21 17 -34 -3 -4 2 -13 10 -20 8 -7 15 -9 15 -4 0 5 9 -5
19 -22 15 -24 25 -31 45 -29 14 2 24 -1 20 -6 -3 -5 -10 -6 -16 -3 -6 4 -8 2
-4 -4 3 -5 0 -13 -6 -16 -7 -3 -2 -3 12 0 14 4 28 12 32 18 5 7 8 7 8 1 0 -6
-4 -15 -10 -21 -6 -6 -5 -15 1 -24 9 -13 10 -12 5 2 -3 12 -1 15 9 11 8 -3 12
-10 8 -16 -4 -6 0 -8 9 -4 16 6 53 -25 43 -35 -3 -3 3 -8 15 -11 12 -3 24 1
30 11 5 10 10 12 10 7 0 -6 -5 -16 -11 -22 -8 -8 -8 -13 0 -17 6 -4 11 -13 11
-19 0 -7 -9 -1 -20 13 -11 14 -20 20 -20 14 0 -13 27 -38 44 -40 32 -3 36 -5
36 -15 0 -5 -5 -7 -10 -4 -6 3 -10 2 -10 -3 0 -15 28 -23 36 -10 5 7 2 8 -6 3
-8 -5 -11 -4 -6 3 4 6 13 9 21 6 8 -4 12 -11 8 -18 -13 -19 -12 -35 2 -30 7 3
16 1 19 -4 3 -6 15 -8 26 -5 12 3 20 0 20 -6 0 -7 -5 -9 -12 -5 -7 5 -8 3 -3
-6 6 -10 11 -9 22 6 14 19 14 19 11 -1 -2 -14 2 -20 14 -19 10 1 20 -7 23 -17
4 -11 11 -17 16 -14 5 4 9 1 9 -5 0 -7 6 -10 14 -7 8 3 20 -2 28 -11 11 -13
11 -15 -2 -7 -12 6 -13 5 -3 -5 7 -7 20 -14 30 -15 10 -1 28 -6 39 -13 12 -6
25 -8 29 -4 5 4 5 1 1 -6 -6 -11 -13 -10 -32 3 -19 12 -24 13 -24 2 0 -13 13
-17 57 -17 22 0 38 -24 27 -42 -4 -6 2 -6 14 1 24 13 35 2 26 -26 -5 -15 -4
-15 5 -3 7 10 11 11 11 3 0 -7 5 -13 10 -13 7 0 7 7 0 22 -11 22 -10 22 4 4 9
-11 16 -16 16 -12 0 4 8 0 17 -10 16 -15 17 -15 24 2 7 16 8 17 8 2 1 -23 -17
-32 -34 -18 -9 8 -15 8 -20 0 -4 -6 -3 -9 2 -8 4 1 19 -4 32 -11 14 -8 21 -9
17 -2 -4 6 -1 11 8 11 8 0 18 -5 22 -12 5 -7 3 -8 -6 -3 -9 6 -11 4 -5 -4 5
-9 11 -9 17 -3 12 12 40 4 32 -9 -3 -5 2 -9 11 -9 9 0 13 5 10 10 -3 6 -1 10
4 10 6 0 10 -10 8 -23 -1 -16 3 -21 16 -19 10 2 27 -7 38 -20 11 -13 18 -18
16 -13 -3 6 2 16 10 24 13 12 14 11 8 -9 -6 -19 -4 -21 13 -16 12 4 24 2 28
-5 4 -8 3 -9 -4 -5 -7 4 -19 3 -28 -2 -11 -6 -1 -9 34 -8 28 1 48 -2 45 -7 -3
-5 5 -18 18 -30 18 -17 21 -18 16 -4 -3 9 -2 17 3 17 6 0 10 -5 10 -11 0 -8 6
-7 17 2 9 8 14 9 10 3 -11 -18 21 -40 36 -25 9 10 8 11 -5 6 -11 -4 -18 -2
-18 5 0 6 4 8 10 5 6 -3 10 0 10 7 0 8 5 6 11 -5 7 -13 7 -22 0 -31 -8 -9 -7
-13 4 -13 8 0 12 4 9 9 -3 4 0 8 6 8 6 0 8 6 4 13 -4 6 2 4 13 -6 11 -9 23
-14 26 -10 13 12 7 -13 -6 -27 -6 -8 -2 -6 10 3 20 18 22 18 32 0 6 -10 11
-12 11 -5 0 6 5 12 12 12 6 0 9 -3 5 -6 -8 -8 35 -44 45 -38 4 3 5 11 2 18 -7
18 12 30 22 15 4 -8 3 -9 -4 -5 -7 4 -12 3 -12 -3 0 -5 5 -13 10 -16 6 -4 7
-11 4 -17 -4 -7 -2 -8 5 -4 6 4 9 12 6 17 -3 5 1 6 9 3 9 -3 14 -10 11 -14 -3
-5 3 -7 12 -5 10 1 17 10 17 19 -1 8 3 13 8 10 5 -3 7 -12 4 -20 -3 -8 -1 -15
4 -15 6 -1 15 -2 20 -3 6 0 15 -8 20 -16 13 -20 13 -4 1 19 -7 13 -6 18 4 18
8 0 14 -3 13 -6 -2 -22 5 -31 22 -31 11 0 20 5 20 12 0 6 3 8 6 5 4 -4 2 -13
-4 -20 -9 -10 -8 -14 3 -14 8 0 15 6 15 14 0 7 4 13 10 13 5 0 9 -3 9 -8 -5
-28 2 -35 17 -16 8 10 13 13 9 7 -3 -7 -1 -13 4 -13 6 0 11 4 11 8 0 5 7 9 15
9 13 0 13 -3 -2 -19 -9 -11 -11 -18 -5 -18 7 0 12 5 12 10 0 6 12 10 26 10 17
0 23 -4 18 -12 -4 -7 6 -2 22 12 15 14 23 18 16 9 -7 -10 -15 -27 -17 -39 -3
-18 -2 -20 10 -10 8 7 15 9 15 4 0 -4 5 -3 12 4 14 14 29 16 25 3 -1 -5 3 -9
8 -9 6 0 9 4 8 9 -5 16 15 10 21 -6 5 -14 8 -14 30 0 18 12 26 13 32 4 4 -7 3
-9 -4 -5 -6 3 -13 3 -16 -2 -9 -16 29 -9 42 7 8 9 11 10 7 4 -3 -7 -1 -13 5
-13 6 0 8 -5 4 -12 -4 -7 -3 -8 5 -4 6 4 8 13 5 19 -4 7 -4 9 1 5 4 -4 14 -3
21 3 15 13 37 2 28 -13 -4 -6 1 -8 16 -3 15 5 20 4 16 -4 -5 -7 -1 -9 8 -5 9
3 14 10 11 14 -6 10 36 0 52 -12 14 -11 27 7 17 25 -5 9 -4 9 7 -1 10 -10 11
-17 2 -31 -9 -14 -8 -18 3 -18 7 0 11 3 9 7 -2 3 0 12 6 20 7 12 9 11 9 -5 1
-18 2 -18 10 3 8 19 13 21 29 12 11 -6 19 -16 17 -23 -1 -6 -1 -9 1 -4 3 4 9
7 14 7 6 0 7 -5 3 -12 -5 -7 -3 -8 5 -4 9 6 8 13 -6 29 -9 12 -11 16 -3 10 20
-18 30 -16 24 4 -5 15 -4 15 4 3 6 -8 8 -18 5 -23 -3 -5 5 -6 18 -2 22 7 23 7
9 -11 -14 -18 -14 -18 2 -5 10 7 16 17 13 21 -3 5 0 12 6 16 7 4 9 3 6 -3 -4
-6 4 -11 18 -11 15 0 22 5 18 12 -3 6 0 6 7 -1 11 -10 18 -9 34 5 19 17 19 17
3 -8 -24 -34 -21 -47 4 -19 l20 24 -6 -25 c-5 -21 -4 -22 5 -8 6 10 17 15 26
11 9 -3 14 0 12 8 -2 9 5 13 20 12 12 -2 22 1 22 5 0 5 7 9 16 9 15 0 15 -1 0
-12 -23 -17 -20 -28 4 -15 11 6 31 8 45 6 14 -3 31 1 38 8 10 11 14 11 23 -2
9 -12 13 -12 19 -2 6 9 4 11 -5 5 -9 -5 -11 -4 -6 4 6 9 11 9 24 -1 14 -11 15
-10 9 7 -6 17 -5 18 5 5 7 -9 20 -15 28 -15 8 1 21 -3 28 -8 9 -7 11 -6 7 4
-6 17 11 46 22 36 4 -5 1 -12 -6 -16 -9 -6 -10 -11 -2 -15 6 -4 11 -2 11 5 0
10 3 10 12 1 19 -19 29 -14 24 13 -3 13 0 27 5 31 5 3 9 2 8 -3 -3 -18 2 -33
11 -33 5 0 6 7 3 17 -5 12 -3 14 8 7 20 -12 40 -14 33 -3 -3 5 -10 6 -16 3 -7
-4 -8 -2 -4 4 5 9 13 9 26 2 26 -14 33 -13 27 4 -4 10 -1 13 9 9 7 -3 14 -8
14 -12 0 -4 7 -8 15 -8 13 0 12 4 -2 21 -12 13 -13 17 -3 10 8 -6 28 -14 43
-16 21 -4 27 -2 23 8 -3 8 -1 14 5 14 6 0 7 5 3 12 -4 7 -3 8 5 4 6 -4 9 -12
6 -17 -4 -5 1 -9 9 -9 26 0 31 4 30 22 -1 10 4 14 12 11 8 -3 11 -9 8 -14 -3
-5 12 0 33 12 l38 21 -24 -21 c-13 -12 -18 -21 -13 -21 6 0 14 5 18 11 3 6 15
9 25 6 16 -4 17 -2 8 15 -9 16 -8 19 2 13 9 -6 11 -3 6 9 -4 11 -3 15 4 11 6
-4 8 -14 5 -24 -4 -9 3 -5 13 9 19 23 20 23 15 4 -3 -12 -1 -25 5 -28 7 -5 8
-1 4 10 -4 12 -3 15 5 10 8 -5 10 -1 5 10 -4 12 -2 15 8 12 8 -3 13 -11 11
-17 -1 -8 3 -8 17 1 11 7 18 16 15 20 -3 4 2 5 11 2 10 -4 15 -2 13 6 -4 17
33 22 51 7 12 -9 13 -9 7 1 -4 7 -2 12 4 12 6 0 8 5 5 10 -3 6 -1 10 4 10 6 0
11 -4 11 -8 0 -5 6 -9 14 -9 8 0 12 8 9 21 -4 17 -3 18 6 6 6 -8 11 -10 11 -4
0 17 28 25 36 12 4 -6 3 -8 -4 -4 -6 3 -13 2 -16 -3 -4 -5 2 -8 11 -7 10 2 18
11 18 22 0 13 6 18 19 16 11 -2 15 1 11 7 -9 16 1 13 14 -3 10 -12 8 -14 -13
-12 -14 2 -23 -1 -20 -5 3 -5 17 -7 31 -5 26 5 44 16 27 16 -5 0 -10 10 -11
21 -2 21 -1 21 13 3 9 -11 13 -13 9 -6 -4 7 0 12 10 12 10 0 14 5 9 13 -5 9
-4 9 6 0 7 -6 19 -9 26 -6 8 3 21 0 28 -6 11 -9 16 -9 22 0 4 7 3 9 -4 5 -6
-4 -16 4 -23 16 -6 13 -8 20 -4 16 5 -4 15 -2 24 5 14 11 15 10 1 -8 -14 -18
-13 -19 1 -8 9 7 18 10 22 7 8 -9 27 32 19 41 -4 5 -1 5 6 1 7 -4 10 -11 8
-15 -3 -4 7 -7 21 -7 l25 0 -23 19 -24 20 24 -8 c18 -5 22 -4 16 5 -6 9 -4 11
5 5 7 -4 16 -2 21 6 4 8 13 15 19 15 5 1 15 2 21 3 5 0 8 5 4 10 -3 5 0 13 6
17 8 4 9 3 5 -4 -4 -7 -2 -12 3 -12 6 0 11 6 11 13 0 8 3 7 10 -3 5 -8 12 -11
16 -7 4 3 1 14 -6 22 -7 9 -9 15 -4 14 19 -3 35 1 30 9 -6 10 35 10 50 0 17
-11 25 3 11 20 -9 13 -9 14 0 8 7 -4 21 -2 30 4 16 11 16 11 1 6 -10 -3 -19
-2 -22 2 -8 13 46 13 62 0 11 -9 10 -4 -4 17 -18 30 -18 30 1 15 17 -14 18
-13 12 2 -3 10 -1 20 5 24 7 4 8 3 4 -4 -10 -16 2 -15 19 2 8 7 11 17 7 20 -3
4 2 4 13 0 11 -5 14 -9 7 -12 -7 -2 -17 -13 -24 -25 -10 -20 -9 -20 15 3 19
19 23 29 16 42 -7 14 -6 16 6 12 9 -4 22 1 31 12 14 18 14 18 8 -1 -5 -19 -5
-19 9 -3 8 10 18 14 23 10 4 -4 2 1 -5 11 -10 12 -10 17 -2 17 7 0 9 5 5 12
-4 7 -3 8 5 4 6 -4 9 -13 5 -19 -3 -7 1 -4 9 5 8 10 17 15 20 11 4 -3 8 1 8
10 2 30 4 35 11 43 4 3 6 -3 3 -14 -2 -12 1 -25 7 -28 7 -4 8 -2 4 4 -4 7 -3
12 3 12 5 0 8 9 6 20 -3 18 -1 19 18 8 21 -11 21 -10 7 7 -12 15 -12 17 -1 10
11 -6 13 -4 9 7 -5 11 1 14 23 13 31 -2 47 9 29 20 -6 4 -8 11 -4 16 4 6 11 6
20 -2 8 -6 18 -9 21 -5 4 4 1 11 -7 16 -13 8 -13 11 -1 22 10 9 12 10 7 1 -5
-9 -2 -11 8 -7 9 3 14 10 11 14 -3 5 0 12 6 16 8 4 9 3 5 -4 -4 -7 -3 -12 2
-12 10 0 25 37 23 53 -1 5 3 6 9 2 6 -3 8 -12 4 -18 -3 -7 1 -4 9 5 8 10 18
14 22 10 5 -4 5 1 1 12 -4 13 -2 17 8 13 11 -4 13 -1 9 10 -4 10 -2 14 4 10
16 -10 34 18 27 39 -6 18 -6 18 9 -1 14 -19 15 -18 13 5 -1 19 5 26 22 28 12
2 22 7 22 12 0 5 -7 7 -16 3 -14 -5 -13 -3 2 15 22 26 22 26 20 10 0 -7 4 -14
9 -15 13 -4 14 19 1 36 -8 11 -8 13 2 7 7 -4 12 -2 12 4 0 6 5 8 11 4 8 -5 8
-9 -1 -14 -7 -4 -8 -10 -3 -13 11 -7 33 34 33 58 0 8 6 12 14 9 8 -3 17 0 22
7 4 8 3 10 -4 5 -7 -4 -12 -3 -12 2 0 17 13 22 28 9 13 -10 14 -9 4 10 -16 29
-15 34 3 27 8 -4 12 -11 8 -18 -3 -6 0 -5 8 2 9 8 10 15 4 20 -6 4 -11 13 -13
21 -2 11 3 10 24 -4 15 -10 23 -12 18 -4 -4 7 -8 23 -9 35 0 18 3 20 16 14 11
-6 16 -5 17 6 1 7 3 21 4 29 1 13 5 12 22 -2 20 -17 20 -17 7 0 -10 12 -10 17
-2 17 7 0 9 5 6 11 -4 6 -14 8 -24 5 -13 -5 -12 -3 2 8 11 8 25 12 33 9 10 -4
12 0 8 11 -3 9 -11 13 -18 9 -6 -3 -7 -2 -3 3 5 5 14 9 20 9 7 1 11 6 10 12
-2 7 7 10 20 8 20 -4 21 -3 4 9 -15 12 -15 14 -2 19 9 4 12 13 9 24 -5 15 -4
15 4 3 8 -10 7 -19 -1 -30 -6 -8 -2 -7 10 4 23 19 25 35 8 48 -5 4 0 8 13 8
13 0 20 4 17 10 -6 9 8 14 28 11 5 -1 6 3 2 9 -3 6 -10 8 -15 5 -5 -3 -11 -1
-14 4 -4 5 5 8 18 7 18 -2 23 1 18 12 -4 11 -2 13 8 7 9 -5 11 -4 6 4 -5 7
-13 9 -20 4 -7 -4 -4 -1 5 8 12 11 14 20 8 26 -7 7 -2 10 14 8 17 -2 24 2 23
14 0 9 -5 19 -11 23 -5 4 -1 8 10 8 11 0 27 5 35 11 13 9 12 10 -2 5 -10 -3
-18 -1 -18 4 0 6 5 10 11 10 7 0 9 9 6 23 -6 21 -6 21 8 3 18 -23 18 -21 6 22
-6 20 -6 30 0 27 5 -4 9 -1 9 4 0 6 7 11 15 11 9 0 15 6 14 13 -3 23 1 38 9
33 4 -2 14 0 22 6 13 8 12 9 -2 5 -9 -3 -22 1 -29 9 -10 12 -9 13 5 8 13 -5
15 -2 10 12 -6 17 -5 17 9 -1 15 -19 16 -19 13 7 -2 20 1 28 13 28 14 0 14 2
1 10 -8 5 -11 10 -6 10 5 0 2 8 -5 18 -7 9 -10 14 -5 10 5 -4 15 0 23 8 8 8
18 12 23 9 5 -3 11 -1 15 5 3 6 -4 10 -17 10 -18 0 -20 2 -8 9 8 6 17 8 20 6
4 -2 7 2 7 10 0 8 -3 12 -6 11 -3 -2 -7 7 -7 20 -2 24 -1 24 13 7 8 -10 11
-12 7 -4 -5 11 -3 13 9 8 9 -3 19 -1 23 5 4 6 3 8 -3 5 -6 -4 -19 0 -29 8 -10
9 -14 15 -9 14 23 -3 32 2 43 26 8 18 8 26 0 31 -6 4 -8 3 -5 -3 4 -6 -1 -19
-9 -29 -9 -10 -12 -12 -8 -4 4 8 9 28 10 45 1 16 3 31 3 33 1 1 10 -2 20 -8
14 -7 22 -7 27 2 4 7 3 8 -4 4 -11 -7 -17 6 -13 28 1 5 -5 6 -14 2 -10 -3 -14
-2 -10 5 4 6 13 8 21 5 8 -3 14 -1 14 5 0 6 5 7 12 3 7 -4 8 -3 4 5 -4 6 -11
9 -15 7 -4 -3 -8 2 -8 10 0 9 6 13 15 9 13 -5 13 -3 1 12 -12 14 -12 16 1 11
11 -4 16 0 16 13 0 13 -4 15 -12 8 -8 -7 -15 -6 -20 2 -4 7 -3 10 2 6 12 -7
45 17 48 35 1 7 5 19 10 26 7 12 4 12 -15 2 -24 -13 -24 -13 -6 7 11 13 16 30
13 47 -3 15 1 32 10 41 9 8 12 20 8 26 -5 8 -3 9 6 4 9 -6 11 -4 5 5 -6 10 -4
12 9 7 10 -4 15 -3 11 4 -4 5 -16 7 -28 3 -20 -6 -20 -6 -4 10 9 10 22 14 28
10 7 -4 9 -3 5 4 -3 5 -3 12 1 15 5 2 3 3 -2 1 -6 -1 -12 7 -12 17 -1 10 3 19
8 19 6 0 7 -5 3 -12 -4 -7 -3 -8 4 -4 6 4 9 13 6 21 -4 8 -9 13 -13 11 -4 -3
-7 4 -7 14 0 15 3 17 15 7 12 -10 13 -9 7 1 -10 17 -14 102 -5 96 14 -8 16 36
3 55 -13 18 -13 20 6 16 14 -3 20 1 20 14 0 9 6 23 13 30 10 11 10 13 0 7 -15
-8 -18 10 -4 19 6 3 8 15 6 27 -3 12 1 28 8 37 9 12 9 13 0 7 -8 -4 -13 -2
-13 5 0 7 -5 8 -13 3 -7 -5 -4 -1 6 9 11 9 14 17 8 17 -7 0 -9 5 -6 10 4 6 12
8 18 4 7 -3 3 2 -7 10 -15 12 -16 16 -5 16 8 0 10 3 4 8 -15 11 -17 30 -5 52
8 15 8 20 -2 20 -6 0 -3 7 8 15 19 15 19 15 -1 9 -20 -6 -20 -5 -1 10 16 13
17 16 4 16 -20 0 -18 40 2 60 9 8 11 12 6 8 -15 -12 -23 -10 -23 7 0 8 4 12 9
9 4 -3 8 2 8 11 0 9 -4 14 -8 11 -5 -3 -9 1 -9 9 0 8 4 12 9 9 16 -10 8 9 -9
22 -17 13 -17 14 0 8 9 -3 17 -1 17 5 0 6 -5 11 -12 11 -6 0 -3 6 8 14 18 14
18 15 1 21 -17 7 -17 8 0 21 10 8 14 14 8 13 -22 -3 -35 1 -35 12 0 5 5 7 10
4 10 -6 14 15 11 44 -2 8 2 10 11 5 10 -6 11 -5 1 8 -7 8 -9 19 -5 23 4 5 1 5
-5 1 -7 -4 -13 -2 -13 3 0 6 5 11 11 11 5 0 8 4 4 10 -3 5 -13 7 -23 4 -9 -3
-6 2 8 11 l25 16 -25 -7 -25 -6 23 21 c24 24 31 41 8 22 -11 -9 -16 -9 -22 0
-4 7 -3 9 2 6 6 -3 15 3 22 13 12 20 0 36 -18 25 -5 -3 -10 -1 -10 5 0 6 -5 8
-12 4 -9 -5 -9 -2 1 9 8 10 9 17 3 17 -6 0 -10 9 -9 20 1 11 5 20 10 20 4 0 7
-7 5 -16 -2 -10 4 -19 12 -21 13 -4 13 -3 0 6 -12 9 -12 11 -1 11 11 0 10 5
-4 20 -10 11 -22 17 -28 13 -6 -3 -7 -1 -3 6 4 6 13 8 19 4 7 -4 5 2 -3 12
-14 17 -13 18 5 11 18 -7 18 -5 -2 14 -28 25 -29 31 -5 24 10 -4 13 -3 6 3
-15 11 -15 65 0 56 6 -3 2 3 -8 15 -11 12 -16 22 -11 22 4 0 2 6 -4 13 -6 8
-7 18 -3 22 4 5 2 5 -4 2 -7 -4 -17 0 -24 8 -10 12 -9 15 6 15 17 0 17 1 -2
16 -10 8 -14 13 -7 10 6 -4 15 -2 18 4 4 6 3 10 -2 9 -20 -3 -34 2 -28 11 4 6
11 8 16 5 5 -3 6 1 3 9 -3 9 -11 13 -17 9 -6 -4 -7 -1 -1 8 12 20 14 40 3 33
-5 -3 -9 -1 -9 5 0 5 6 12 13 14 9 4 9 6 0 6 -18 1 -26 -18 -14 -33 8 -9 7
-13 -3 -13 -7 0 -12 10 -11 21 1 12 -4 31 -12 43 -9 16 -10 24 -1 29 7 5 8 3
3 -6 -6 -9 -4 -11 5 -5 10 6 9 11 -6 23 -18 14 -18 14 4 9 12 -3 20 -1 16 4
-3 5 -12 9 -20 9 -11 0 -13 6 -8 22 6 20 5 21 -10 9 -14 -12 -16 -11 -14 10 2
13 -2 23 -8 22 -6 -1 -11 5 -11 12 0 11 4 12 13 4 9 -7 14 -6 20 3 4 7 4 10
-1 6 -4 -4 -14 -1 -21 7 -19 18 -18 25 4 19 16 -5 16 -5 0 6 -17 11 -26 36
-10 26 5 -3 9 1 9 9 0 12 -4 12 -20 -2 -19 -18 -20 -17 -7 7 12 22 12 24 -3
12 -13 -11 -15 -10 -10 9 5 16 3 20 -6 14 -10 -6 -11 -3 -1 14 7 14 8 27 2 34
-5 7 -8 22 -7 34 1 13 0 21 -3 18 -3 -2 -14 7 -25 21 -17 22 -18 28 -6 36 10
6 6 7 -11 2 -23 -6 -24 -6 -10 11 9 11 10 16 3 11 -12 -7 -17 5 -16 40 0 6
-10 10 -23 8 -16 -1 -21 2 -17 13 5 12 7 12 14 1 7 -10 9 -8 9 6 0 14 -5 17
-21 13 -12 -3 -18 -3 -15 0 3 3 -3 13 -12 22 -10 9 -13 13 -8 9 16 -13 22 -9
22 11 0 11 -3 19 -6 19 -21 -2 -29 4 -23 19 5 12 3 14 -8 8 -12 -8 -12 -6 0 8
16 20 2 23 -19 5 -8 -7 -6 -3 3 9 12 14 15 23 7 28 -5 3 -7 12 -4 18 5 8 3 8
-7 0 -18 -18 -29 -16 -29 5 0 14 2 15 10 2 8 -13 10 -12 10 4 0 13 -5 17 -20
13 -14 -3 -18 -1 -13 6 14 22 13 39 -2 27 -10 -8 -15 -8 -21 1 -4 8 -3 9 4 5
13 -8 15 4 6 28 -5 14 -9 14 -22 4 -14 -12 -14 -10 -2 12 12 23 12 24 -4 11
-14 -12 -16 -12 -10 3 7 19 -7 21 -25 4 -11 -11 -11 -9 0 9 7 12 16 20 19 18
4 -2 7 2 7 9 0 8 -7 12 -15 8 -11 -4 -13 -2 -7 9 8 12 6 12 -8 0 -15 -12 -17
-12 -11 4 5 13 4 16 -5 11 -8 -5 -12 -3 -10 5 4 31 -2 47 -18 54 -15 5 -16 4
-5 -6 6 -7 12 -17 12 -23 0 -5 -6 -1 -14 9 -11 15 -12 25 -3 40 9 18 9 19 -8
5 -17 -14 -18 -14 -6 8 12 22 11 23 -9 12 -20 -11 -21 -10 -15 12 7 20 6 21
-8 10 -12 -10 -17 -10 -23 -1 -4 7 -3 9 3 6 6 -4 13 0 16 8 4 9 1 12 -7 9 -8
-3 -16 5 -20 20 -5 19 -11 24 -24 19 -15 -6 -15 -5 -3 10 9 12 10 17 2 17 -7
0 -9 5 -5 12 5 7 3 8 -7 2 -20 -12 -40 -14 -33 -3 3 5 10 7 15 4 5 -3 6 1 3 9
-3 9 -11 13 -18 9 -6 -4 -5 1 3 11 12 15 12 17 0 14 -8 -2 -13 3 -11 10 1 8
-2 11 -7 7 -6 -3 -8 -13 -5 -23 5 -14 4 -14 -4 -2 -6 8 -8 18 -6 22 3 4 0 8
-7 8 -6 0 -9 8 -7 18 3 11 0 19 -8 19 -7 0 -11 -3 -9 -7 2 -3 -5 -6 -15 -6
-11 0 -16 5 -12 15 4 10 1 12 -8 6 -8 -5 -11 -4 -6 3 4 6 14 8 23 5 15 -6 16
-5 3 9 -8 9 -18 14 -22 11 -5 -2 -8 0 -8 6 0 5 -9 13 -20 16 -11 3 -20 11 -20
16 0 6 5 7 10 4 6 -3 10 -2 10 4 0 18 -18 21 -24 4 -6 -14 -9 -15 -16 -4 -4 8
-6 21 -3 28 4 10 0 13 -13 11 -14 -2 -19 3 -18 19 0 18 -2 20 -13 11 -8 -6
-13 -7 -12 -2 4 22 -2 34 -17 34 -8 0 -23 7 -32 16 -15 15 -14 16 7 9 17 -5
21 -4 16 5 -4 6 -18 10 -31 7 -16 -3 -24 0 -24 10 0 8 5 11 12 7 7 -5 8 -3 3
6 -6 10 -11 9 -23 -6 -14 -18 -14 -18 -8 2 4 14 0 27 -14 39 -11 10 -17 22
-14 26 3 5 -7 4 -21 -1 -33 -13 -44 -13 -25 0 10 6 11 10 3 10 -7 0 -13 5 -13
11 0 5 6 7 13 3 6 -4 9 -3 4 1 -4 5 -17 10 -30 12 -12 2 -27 4 -33 5 -6 1 -11
7 -11 14 0 9 7 8 26 -4 l26 -16 -23 23 c-13 13 -30 20 -38 17 -13 -5 -18 5
-15 32 1 6 -3 12 -9 12 -6 0 -9 -4 -6 -8 2 -4 -5 -14 -17 -22 -20 -12 -21 -12
-9 3 11 12 11 20 2 34 -10 15 -11 15 -6 1 3 -12 1 -15 -9 -11 -8 3 -13 8 -11
12 6 10 -21 31 -30 23 -5 -4 -2 1 5 11 12 15 12 17 -3 11 -12 -5 -15 -2 -10
12 3 11 -1 8 -10 -6 -8 -14 -15 -19 -16 -11 0 8 -6 11 -16 7 -9 -3 -12 -2 -9
5 4 6 14 8 24 4 11 -4 13 -3 6 4 -6 6 -23 12 -37 13 -15 1 -26 7 -25 12 1 5
-10 10 -25 10 -14 1 -30 5 -35 10 -4 5 -3 6 4 2 6 -3 14 -2 18 4 3 5 12 10 18
10 7 0 6 -4 -3 -11 -10 -7 -11 -9 -2 -7 20 5 10 23 -12 20 -16 -2 -17 0 -5 15
11 14 8 14 -9 -2 -13 -11 -23 -15 -22 -10 2 6 2 17 1 25 -1 13 -2 13 -11 0 -9
-13 -10 -13 -11 0 -1 8 -1 18 0 23 0 4 -2 6 -6 6 -5 -1 -10 -1 -13 1 -3 1 -15
3 -28 6 -17 3 -21 1 -16 -8 5 -8 1 -8 -12 2 -30 22 -30 24 -9 16 14 -5 17 -4
10 3 -6 6 -23 12 -37 13 -15 1 -24 6 -22 10 3 4 12 4 22 1 18 -7 17 -5 -12 17
-17 13 -18 13 -11 1 6 -11 4 -13 -8 -8 -9 3 -18 1 -21 -6 -3 -7 -3 -1 1 13 5
22 4 23 -9 12 -13 -10 -19 -10 -32 3 -9 9 -16 22 -17 28 0 7 -4 3 -9 -8 -8
-19 -9 -18 -9 4 -1 20 -3 22 -16 11 -9 -7 -18 -10 -22 -6 -3 3 -1 6 5 6 7 0
12 5 12 10 0 13 -32 9 -43 -5 -4 -5 -5 4 -3 20 4 26 3 28 -7 13 -12 -15 -14
-15 -25 0 -7 9 -10 11 -7 5 4 -9 1 -11 -10 -7 -9 4 -14 9 -11 11 5 6 -19 33
-29 33 -3 0 -1 -10 5 -22 l11 -23 -17 23 c-17 23 -54 30 -54 10 0 -6 -3 -8 -6
-5 -4 4 -2 12 4 20 7 8 7 18 2 27 -7 10 -10 11 -10 3 0 -7 -7 -13 -16 -13 -10
0 -14 5 -10 16 3 9 2 12 -5 9 -5 -4 -18 -1 -27 7 -15 12 -16 11 -4 -4 11 -13
11 -18 0 -24 -7 -4 -10 -4 -6 1 8 9 -15 35 -32 35 -6 0 -9 4 -6 8 3 5 -1 9 -9
9 -11 0 -12 -4 -3 -14 6 -7 8 -16 4 -20 -3 -3 -6 -1 -6 5 0 7 -7 12 -16 12 -9
0 -12 -5 -8 -12 4 -7 3 -8 -5 -4 -9 6 -9 11 -1 21 8 9 6 14 -6 19 -23 9 -26 8
-19 -6 4 -7 1 -6 -7 2 -7 8 -19 16 -27 18 -12 3 -12 1 0 -15 13 -16 12 -17 -3
-5 -9 8 -23 10 -29 6 -7 -4 -9 -3 -5 4 3 6 0 17 -8 25 -8 8 -14 16 -13 18 1 2
-5 -4 -14 -14 -14 -17 -17 -17 -28 -3 -8 9 -9 16 -3 16 6 0 13 -6 15 -12 4
-10 6 -10 6 -1 1 7 -9 17 -20 24 -12 6 -19 7 -15 1 3 -5 -1 -13 -10 -16 -23
-9 -31 -7 -16 3 10 6 7 10 -12 13 -18 4 -24 2 -19 -6 5 -7 1 -4 -9 6 -9 10
-23 18 -31 18 -8 0 -18 7 -21 16 -5 13 -9 14 -21 4 -8 -7 -15 -9 -15 -5 0 4
-8 1 -17 -6 -9 -8 -14 -9 -10 -3 4 7 0 14 -8 18 -8 3 -17 0 -21 -6 -5 -7 -2
-8 6 -3 9 5 11 4 6 -4 -4 -6 -13 -8 -19 -4 -7 4 -23 8 -36 8 -14 1 -26 7 -29
15 -3 13 -2 13 7 0 7 -9 11 -10 11 -3 0 14 -12 23 -40 28 -11 2 -18 0 -15 -4
3 -5 -2 -12 -11 -15 -8 -3 -12 -11 -8 -17 5 -8 3 -9 -5 -4 -9 5 -10 10 -2 18
18 18 13 31 -6 16 -9 -8 -14 -9 -10 -2 5 8 -11 12 -53 15 -33 1 -60 -1 -60 -5
0 -5 -5 -5 -10 -2 -8 5 -7 12 2 23 7 10 0 6 -15 -7 -22 -20 -27 -22 -33 -8 -6
18 -43 15 -56 -5 -5 -9 -8 -10 -8 -1 0 6 -9 10 -20 8 -12 -2 -18 0 -15 6 4 5
11 6 17 3 7 -4 8 -2 4 4 -10 16 -49 -5 -40 -21 5 -9 4 -9 -6 0 -7 6 -19 9 -26
6 -8 -3 -14 0 -14 5 0 6 9 9 21 7 18 -4 19 -2 8 11 -12 14 -15 14 -32 -7 -18
-22 -19 -22 -13 -3 4 15 2 21 -9 21 -9 0 -14 -6 -11 -13 3 -7 -3 -18 -12 -26
-12 -10 -14 -10 -8 0 4 7 1 15 -9 18 -13 5 -13 9 -3 22 12 13 11 14 -9 2 -17
-11 -20 -18 -12 -34 9 -19 9 -20 -4 -3 -14 17 -43 25 -33 9 2 -4 -5 -9 -16 -9
-20 -2 -20 -1 2 14 20 14 21 17 6 25 -9 5 -22 6 -28 2 -7 -4 -23 -9 -36 -10
-19 -2 -21 0 -11 12 17 20 10 17 -39 -17z m108 7 c0 -3 -4 -8 -10 -11 -5 -3
-10 -1 -10 4 0 6 5 11 10 11 6 0 10 -2 10 -4z m-74 -18 c5 -7 3 -8 -5 -4 -7 5
-19 0 -27 -10 -14 -18 -14 -18 -4 4 12 24 25 28 36 10z m39 2 c3 -6 -1 -7 -9
-4 -18 7 -21 14 -7 14 6 0 13 -4 16 -10z m-185 -9 c0 -6 -4 -12 -8 -15 -5 -3
-9 1 -9 9 0 8 4 15 9 15 4 0 8 -4 8 -9z m504 -9 c3 -5 -1 -9 -9 -9 -8 0 -12 4
-9 9 3 4 7 8 9 8 2 0 6 -4 9 -8z m255 -34 c0 -13 -3 -17 -6 -10 -2 6 -10 9
-16 5 -7 -4 -6 1 2 10 18 22 21 21 20 -5z m-1094 -17 c-6 -5 -25 10 -25 20 0
5 6 4 14 -3 8 -7 12 -15 11 -17z m1258 -8 c-4 -11 -3 -14 5 -9 7 4 12 2 12 -3
0 -6 -4 -11 -9 -11 -14 0 -23 18 -16 30 10 16 15 12 8 -7z m-1553 -39 c0 -8
-19 -13 -24 -6 -3 5 1 9 9 9 8 0 15 -2 15 -3z m1750 -23 c0 -5 -7 -12 -16 -15
-14 -5 -15 -4 -4 9 14 17 20 19 20 6z m-1939 -30 c-7 -5 -12 -11 -12 -15 1 -3
-1 -6 -4 -6 -3 0 -10 0 -16 0 -6 0 -1 9 12 19 13 11 26 17 29 15 2 -3 -1 -9
-9 -13z m-118 -45 c4 -10 1 -13 -9 -9 -10 4 -13 0 -8 -13 5 -15 4 -16 -4 -4
-8 10 -8 18 0 27 13 16 15 16 21 -1z m-86 -41 c0 -8 -4 -12 -9 -9 -5 3 -6 10
-3 15 9 13 12 11 12 -6z m2846 -211 c-3 -8 -7 -14 -10 -14 -3 0 -3 6 0 14 3 7
0 20 -6 27 -10 11 -9 11 5 0 9 -7 14 -19 11 -27z m-3298 -24 c-3 -5 -1 -10 6
-10 7 0 10 -3 6 -6 -9 -9 -28 6 -22 17 4 5 8 9 11 9 3 0 2 -4 -1 -10z m3738
-278 c15 -16 15 -18 -1 -18 -10 0 -18 8 -18 18 0 10 1 18 2 18 0 0 8 -8 17
-18z m-4553 -482 c0 -5 -5 -10 -11 -10 -5 0 -7 5 -4 10 3 6 8 10 11 10 2 0 4
-4 4 -10z m-66 -94 c-3 -9 -10 -16 -15 -16 -5 0 -4 9 3 20 14 22 21 20 12 -4z
m-24 -60 c0 -3 -4 -8 -10 -11 -5 -3 -10 -1 -10 4 0 6 5 11 10 11 6 0 10 -2 10
-4z m5320 -190 c0 -2 -7 -7 -16 -10 -8 -3 -12 -2 -9 4 6 10 25 14 25 6z
m-5480 -56 c0 -5 -5 -10 -11 -10 -5 0 -7 5 -4 10 3 6 8 10 11 10 2 0 4 -4 4
-10z m5565 -131 c11 -16 1 -19 -13 -3 -7 8 -8 14 -3 14 5 0 13 -5 16 -11z
m-5665 -92 c0 -6 -3 -7 -7 -4 -3 4 -13 1 -22 -6 -14 -10 -14 -10 -4 4 7 9 10
19 6 23 -4 4 0 4 10 0 9 -3 17 -11 17 -17z m5720 -7 c6 -11 7 -20 3 -20 -4 0
-1 -5 7 -10 12 -7 11 -9 -6 -8 -15 2 -21 8 -20 23 1 11 -3 23 -9 27 -6 5 -6 8
2 8 7 0 17 -9 23 -20z m29 -73 c0 -9 -2 -8 -6 1 -2 6 -10 9 -15 6 -7 -4 -8 -2
-4 5 9 13 26 5 25 -12z m-5869 -216 c0 -6 -5 -13 -10 -16 -6 -4 -7 -11 -4 -17
4 -7 2 -8 -5 -4 -8 6 -9 12 -2 20 6 7 8 16 4 19 -3 4 -1 7 5 7 7 0 12 -4 12
-9z m-5 -60 c-9 -8 -36 -10 -30 -2 2 4 11 8 20 8 8 0 13 -3 10 -6z m6030 -231
c-3 -5 -1 -11 5 -15 13 -8 3 -25 -13 -25 -9 0 -8 3 1 8 9 7 8 13 -8 27 -22 20
-17 43 6 24 7 -6 12 -15 9 -19z m-6145 -210 c0 -5 -2 -10 -4 -10 -3 0 -8 5
-11 10 -3 6 -1 10 4 10 6 0 11 -4 11 -10z m6202 -62 c-7 -7 -16 -7 -28 0 -14
8 -13 10 10 10 18 0 24 -4 18 -10z m8 -132 c0 -3 -4 -8 -10 -11 -5 -3 -10 -1
-10 4 0 6 5 11 10 11 6 0 10 -2 10 -4z m-6234 -150 c1 -7 -4 -13 -12 -13 -9 0
-11 4 -4 12 5 7 8 15 5 18 -3 4 -2 5 2 2 4 -3 8 -11 9 -19z m1 -272 c-3 -3
-12 -4 -19 -1 -8 3 -5 6 6 6 11 1 17 -2 13 -5z m6229 -149 c-1 -8 -7 -20 -13
-26 -9 -9 -11 -7 -8 7 2 11 4 22 4 27 1 4 5 7 10 7 5 0 8 -7 7 -15z m-16 -55
c0 -5 -5 -10 -11 -10 -5 0 -7 5 -4 10 3 6 8 10 11 10 2 0 4 -4 4 -10z m-6137
-407 c-4 -11 -3 -14 5 -9 7 4 12 2 12 -3 0 -13 -3 -13 -24 -5 -15 6 -11 34 5
34 4 0 5 -7 2 -17z m6051 -85 c-3 -4 -11 -5 -19 -1 -21 7 -19 12 4 10 11 0 18
-5 15 -9z m-5934 -222 c0 -2 -7 -9 -15 -16 -13 -11 -14 -10 -9 4 5 14 24 23
24 12z m65 -204 c-3 -3 -11 0 -18 7 -9 10 -8 11 6 5 10 -3 15 -9 12 -12z m398
-662 c8 -11 16 -18 19 -15 2 3 5 -2 5 -10 0 -19 1 -20 -30 15 -15 17 -23 30
-18 30 6 0 16 -9 24 -20z m254 -302 c-3 -8 -6 -5 -6 6 -1 11 2 17 5 13 3 -3 4
-12 1 -19z m30 7 c0 -8 -4 -12 -9 -9 -5 3 -6 10 -3 15 9 13 12 11 12 -6z m13
-45 c6 -11 8 -20 6 -20 -3 0 -10 9 -16 20 -6 11 -8 20 -6 20 3 0 10 -9 16 -20z
m290 -241 c0 -5 5 -7 12 -3 7 4 8 3 4 -5 -6 -9 -12 -9 -24 1 -10 7 -19 14 -21
15 -2 2 3 3 12 3 10 0 17 -5 17 -11z m720 -394 c0 -8 -4 -15 -10 -15 -5 0 -7
7 -4 15 4 8 8 15 10 15 2 0 4 -7 4 -15z m254 -105 c10 -13 9 -13 -6 -1 -10 7
-18 21 -17 30 0 13 1 14 6 1 3 -8 11 -22 17 -30z m1670 -26 c3 -8 2 -12 -4 -9
-6 3 -10 10 -10 16 0 14 7 11 14 -7z m-1264 -57 c0 -8 -7 -14 -15 -14 -11 0
-12 4 -4 14 6 7 13 13 15 13 2 0 4 -6 4 -13z m933 -8 c-8 -8 -13 -7 -18 2 -5
8 -4 10 3 5 7 -4 12 -2 12 5 0 7 3 9 7 6 4 -4 2 -12 -4 -18z m71 5 c3 -8 2
-12 -4 -9 -6 3 -10 10 -10 16 0 14 7 11 14 -7z m-189 -13 c-9 -8 -36 -10 -30
-2 2 4 11 8 20 8 8 0 13 -3 10 -6z"/>
<path d="M3570 6600 c-9 -6 -10 -10 -3 -10 6 0 15 5 18 10 8 12 4 12 -15 0z"/>
<path d="M3770 6569 c0 -5 5 -7 10 -4 6 3 10 8 10 11 0 2 -4 4 -10 4 -5 0 -10
-5 -10 -11z"/>
<path d="M4126 6522 c-3 -5 1 -9 9 -9 8 0 12 4 9 9 -3 4 -7 8 -9 8 -2 0 -6 -4
-9 -8z"/>
<path d="M4795 6320 c3 -5 8 -10 11 -10 2 0 4 5 4 10 0 6 -5 10 -11 10 -5 0
-7 -4 -4 -10z"/>
<path d="M2150 6282 c0 -6 -8 -9 -17 -6 -15 5 -16 4 -3 -5 16 -11 40 3 27 16
-4 3 -7 1 -7 -5z"/>
<path d="M2106 6248 c3 -5 10 -6 15 -3 13 9 11 12 -6 12 -8 0 -12 -4 -9 -9z"/>
<path d="M4941 6244 c-1 -6 7 -18 16 -25 9 -8 14 -9 10 -2 -4 6 -4 13 0 16 5
2 3 2 -4 1 -6 -2 -14 2 -17 9 -3 8 -5 8 -5 1z"/>
<path d="M5255 6061 c-6 -11 13 -26 22 -17 4 3 1 6 -6 6 -7 0 -9 5 -6 10 3 6
4 10 1 10 -3 0 -7 -4 -11 -9z"/>
<path d="M5725 5660 c-3 -6 1 -7 9 -4 18 7 21 14 7 14 -6 0 -13 -4 -16 -10z"/>
<path d="M1195 5580 c-3 -5 -1 -10 4 -10 6 0 11 5 11 10 0 6 -2 10 -4 10 -3 0
-8 -4 -11 -10z"/>
<path d="M1158 5523 c7 -3 16 -2 19 1 4 3 -2 6 -13 5 -11 0 -14 -3 -6 -6z"/>
<path d="M1090 5441 c0 -7 -5 -9 -12 -5 -7 4 -10 4 -6 -1 4 -4 3 -14 -3 -21
-7 -9 -6 -14 3 -20 7 -4 10 -3 5 1 -4 5 0 17 10 27 9 10 13 21 10 25 -4 3 -7
1 -7 -6z"/>
<path d="M975 5291 c-3 -5 -2 -12 3 -15 5 -3 9 1 9 9 0 17 -3 19 -12 6z"/>
<path d="M835 5080 c-3 -5 -2 -10 4 -10 5 0 13 5 16 10 3 6 2 10 -4 10 -5 0
-13 -4 -16 -10z"/>
<path d="M716 4902 c-3 -4 4 -9 15 -9 23 -2 25 3 4 10 -8 4 -16 3 -19 -1z"/>
<path d="M610 4639 c0 -5 5 -7 10 -4 6 3 10 8 10 11 0 2 -4 4 -10 4 -5 0 -10
-5 -10 -11z"/>
<path d="M487 4319 c7 -7 15 -10 18 -7 3 3 -2 9 -12 12 -14 6 -15 5 -6 -5z"/>
<path d="M350 3676 c0 -2 8 -10 18 -17 15 -13 16 -12 3 4 -13 16 -21 21 -21
13z"/>
<path d="M356 3575 c-9 -26 -7 -32 5 -12 6 10 9 21 6 23 -2 3 -7 -2 -11 -11z"/>
<path d="M376 3326 c10 -8 21 -12 24 -10 5 6 -21 24 -34 24 -6 0 -1 -6 10 -14z"/>
<path d="M6640 3301 c0 -6 4 -13 10 -16 6 -3 7 1 4 9 -7 18 -14 21 -14 7z"/>
<path d="M356 3213 c-6 -14 -5 -15 5 -6 7 7 10 15 7 18 -3 3 -9 -2 -12 -12z"/>
<path d="M6635 3029 c-4 -6 -5 -12 -2 -15 2 -3 7 2 10 11 7 17 1 20 -8 4z"/>
<path d="M6635 2970 c-4 -6 -10 -8 -15 -5 -4 3 -11 -2 -14 -10 -4 -13 -2 -13
14 -5 18 10 36 30 26 30 -3 0 -8 -5 -11 -10z"/>
<path d="M6559 2708 c-5 -18 -6 -38 -1 -34 7 8 12 36 6 36 -2 0 -4 -1 -5 -2z"/>
<path d="M6460 2416 c0 -2 8 -10 18 -17 15 -13 16 -12 3 4 -13 16 -21 21 -21
13z"/>
<path d="M530 2380 c0 -5 5 -10 11 -10 5 0 7 5 4 10 -3 6 -8 10 -11 10 -2 0
-4 -4 -4 -10z"/>
<path d="M6386 2191 c-3 -5 2 -15 12 -22 15 -12 16 -12 5 2 -7 9 -10 19 -6 22
3 4 4 7 0 7 -3 0 -8 -4 -11 -9z"/>
<path d="M690 2060 c0 -5 5 -10 11 -10 5 0 7 5 4 10 -3 6 -8 10 -11 10 -2 0
-4 -4 -4 -10z"/>
<path d="M6305 2011 c-3 -5 0 -13 6 -17 7 -4 9 -3 5 4 -3 5 0 13 6 15 9 4 10
6 1 6 -6 1 -14 -3 -18 -8z"/>
<path d="M6085 1640 c-3 -5 -2 -10 4 -10 5 0 13 5 16 10 3 6 2 10 -4 10 -5 0
-13 -4 -16 -10z"/>
<path d="M996 1537 c3 -10 9 -15 12 -12 3 3 0 11 -7 18 -10 9 -11 8 -5 -6z"/>
<path d="M5788 1273 c7 -3 16 -2 19 1 4 3 -2 6 -13 5 -11 0 -14 -3 -6 -6z"/>
<path d="M1454 1058 c-5 -7 -3 -8 6 -3 10 6 12 4 7 -8 -4 -11 -2 -14 9 -10 11
4 12 9 3 19 -14 17 -16 17 -25 2z"/>
<path d="M5535 1029 c-4 -6 -5 -12 -2 -15 2 -3 7 2 10 11 7 17 1 20 -8 4z"/>
<path d="M1770 800 c0 -5 5 -10 11 -10 5 0 7 5 4 10 -3 6 -8 10 -11 10 -2 0
-4 -4 -4 -10z"/>
<path d="M5140 750 c-9 -6 -10 -10 -3 -10 6 0 15 5 18 10 8 12 4 12 -15 0z"/>
<path d="M1901 731 c-10 -6 -9 -10 3 -14 8 -3 18 -2 21 3 8 13 -9 20 -24 11z"/>
<path d="M5116 727 c3 -10 9 -15 12 -12 3 3 0 11 -7 18 -10 9 -11 8 -5 -6z"/>
<path d="M5020 678 c0 -4 4 -8 9 -8 6 0 12 4 15 8 3 5 -1 9 -9 9 -8 0 -15 -4
-15 -9z"/>
<path d="M5065 680 c3 -5 8 -10 11 -10 2 0 4 5 4 10 0 6 -5 10 -11 10 -5 0 -7
-4 -4 -10z"/>
<path d="M4810 566 c0 -2 7 -7 16 -10 8 -3 12 -2 9 4 -6 10 -25 14 -25 6z"/>
<path d="M4557 463 c3 -7 6 -13 8 -13 2 0 5 6 8 13 3 8 -1 14 -8 14 -7 0 -11
-6 -8 -14z"/>
<path d="M2490 460 c0 -5 5 -10 11 -10 5 0 7 5 4 10 -3 6 -8 10 -11 10 -2 0
-4 -4 -4 -10z"/>
<path d="M3225 310 c-3 -5 -2 -10 4 -10 5 0 13 5 16 10 3 6 2 10 -4 10 -5 0
-13 -4 -16 -10z"/>
<path d="M3434 286 c0 -13 4 -22 9 -19 10 6 9 31 -2 37 -5 3 -8 -5 -7 -18z"/>
<path d="M3720 303 c5 -2 8 -9 5 -13 -3 -5 -1 -11 4 -14 5 -4 8 2 7 11 -2 9
-8 18 -15 19 -6 1 -7 0 -1 -3z"/>
<path d="M3310 290 c-9 -6 -10 -10 -3 -10 6 0 15 5 18 10 8 12 4 12 -15 0z"/>
<path d="M3569 283 c-13 -16 -12 -17 4 -4 9 7 17 15 17 17 0 8 -8 3 -21 -13z"/>
<path d="M3599 283 c-13 -16 -12 -17 4 -4 16 13 21 21 13 21 -2 0 -10 -8 -17
-17z"/>
<path d="M3316 258 c3 -5 10 -6 15 -3 13 9 11 12 -6 12 -8 0 -12 -4 -9 -9z"/>
</g>
</svg>
